# xmcd
# 
# Track frame offsets:
#     150
#     20692
#     39792
#     56085
#     72882
#     86010
#     98455
#     123827
#     141177
# 
# Disc length: 2153
# 
# Revision: 0
# Processed by: cddbd v1.5.2PL0 Copyright (c) Steve Scherf et al.
# Submitted via: BonkEnc v1.0.8
# 
DISCID=6e086709
DTITLE=Tower Of Power - Bump City
DYEAR=1972
DGENRE=Funk
TTITLE0=You Got to Funkifize
TTITLE1=What Happened To The World That Day?
TTITLE2=Flash In The Pan
TTITLE3=Gone (In Memory Of Jacqueline Mesquite)
TTITLE4=You Strike My Main Nerve
TTITLE5=Down To The Nightclub (Bump City)
TTITLE6=You're Still A Young Man
TTITLE7=Skating On Thin Ice
TTITLE8=Of The Earth
EXTD=(C) (P) 1972 Warner Bros. Records\n\nProduced by Ron Capone (for Trans Maximus) and Tower of Power\n\nAll songs written by Stephen Kupka/Emilio Castillo except:\n4. Greg Adams, Skip Mesquite\n5. Stephen Kupka, Emilio Castillo, Lenny Williams, L. Gord
EXTD=on\n6. Stephen Kupka, Emilio Castillo, David Garibaldi\n\nTower of Power:\nRick Stevens - lead vocals\nSkip Mesquite - 1st tenor sax, flute, vocals (lead vocal on "Gone"]\nEmilio Castillo - 2nd tenor sax, vocals\nGreg Adams - trumpet, fluegelhorn (so
EXTD=lo on "Gone"), french horn, piano on "Gone", vocals\nStephen Kupka - baritone sax, vocals\nMic Gillette - trumpet, trombone, frech horn, vocals\nWillie James Fulton - guitar, vocals\nDavid Garibaldi - drums\nFrancis Rocco Prestia - bass\nBrent Byars 
EXTD=congas, vocals\n\nJay Spell on piano and organ on 2,7,9\n\nMemphis Strings (arranged and conducted by Greg Adams) on 2,7,9
EXTT0=
EXTT1=
EXTT2=
EXTT3=
EXTT4=
EXTT5=
EXTT6=
EXTT7=
EXTT8=
PLAYORDER=
